<?xml version="1.0" encoding="UTF-8" standalone="no"?>
<!-- Created with Inkscape (http://www.inkscape.org/) -->

<svg width="404.48264mm" height="133.13324mm" viewBox="0 0 404.48264 133.13324" version="1.1" id="svg5" inkscape:version="1.1.1 (3bf5ae0, 2021-09-20)" sodipodi:docname="MTN_2019.svg" xmlns:inkscape="http://www.inkscape.org/namespaces/inkscape" xmlns:sodipodi="http://sodipodi.sourceforge.net/DTD/sodipodi-0.dtd" xmlns="http://www.w3.org/2000/svg" xmlns:svg="http://www.w3.org/2000/svg">
  <sodipodi:namedview id="namedview7" pagecolor="#505050" bordercolor="#eeeeee" borderopacity="1" inkscape:pageshadow="0" inkscape:pageopacity="0" inkscape:pagecheckerboard="0" inkscape:document-units="mm" showgrid="false" inkscape:zoom="0.47126122" inkscape:cx="351.18527" inkscape:cy="411.66129" inkscape:window-width="1366" inkscape:window-height="703" inkscape:window-x="0" inkscape:window-y="0" inkscape:window-maximized="1" inkscape:current-layer="svg5" inkscape:snap-bbox="true" inkscape:bbox-paths="false" inkscape:bbox-nodes="false" inkscape:snap-bbox-edge-midpoints="false" inkscape:snap-bbox-midpoints="false" inkscape:object-paths="false" inkscape:snap-intersection-paths="false" inkscape:snap-smooth-nodes="false" inkscape:snap-midpoints="false" inkscape:snap-nodes="true" />
  <defs id="defs2" />
  <path d="M 0.373902,105.38783 H 26.056651 V 26.863565 h 0.295204 L 40.964453,105.38783 H 60.743122 L 75.355718,26.863565 h 0.29521 V 105.38783 H 101.33368 V 0 H 62.07154 L 51.001389,62.435645 H 50.706185 L 39.636035,0 H 0.373902 Z" style="font-weight:900;font-stretch:condensed;font-size:147.602px;line-height:1.25;font-family:'Helvetica Neue';-inkscape-font-specification:'Helvetica Neue Heavy Condensed';letter-spacing:-2.91042px;fill:black;stroke:none;stroke-width:6.43693" id="path4739" />
  <path d="M 124.25352,105.38783 H 151.7075 V 23.321115 h 20.66428 V 0 h -68.78254 v 23.321115 h 20.66428 z" style="font-weight:900;font-stretch:condensed;font-size:147.602px;line-height:1.25;font-family:'Helvetica Neue';-inkscape-font-specification:'Helvetica Neue Heavy Condensed';letter-spacing:-2.91042px;fill:black;stroke:none;stroke-width:6.43693" id="path4741" />
  <path d="m 175.66063,105.38783 h 25.68275 V 40.295345 h 0.2952 l 18.30265,65.092485 h 30.11081 V 0 h -25.68275 v 64.944885 h -0.29521 L 206.36184,0 h -30.70121 z" style="font-weight:900;font-stretch:condensed;font-size:147.602px;line-height:1.25;font-family:'Helvetica Neue';-inkscape-font-specification:'Helvetica Neue Heavy Condensed';letter-spacing:-2.91042px;fill:black;stroke:none;stroke-width:6.43693" id="path4743" />
  <path d="m 15.057968,119.97876 4.044916,-11.52291 H 25.7651 v 24.20151 h -4.384825 v -7.37603 q 0,-6.79818 0.135963,-11.99878 -0.7478,2.54931 -1.835508,5.5745 l -4.89469,13.80031 H 11.013051 L 6.08437,118.85705 q -1.291654,-3.77299 -1.801517,-5.50652 0.135963,5.16661 0.135963,11.9308 v 7.37603 H 0 v -24.20151 h 6.662216 l 4.18088,11.76085 q 0.407891,1.18968 2.073445,6.56024 1.087709,-3.77299 2.141427,-6.79818 z" style="font-weight:bold;font-size:33.9909px;line-height:1.25;font-family:'Helvetica Now Display';-inkscape-font-specification:'Helvetica Now Display Bold';letter-spacing:-1.05833px;word-spacing:-1.32292px;fill:black;stroke:none;stroke-width:1.48235" id="path4746" />
  <path d="m 45.441125,123.88772 q 0,4.14689 -2.447344,6.6622 -2.447345,2.51533 -6.458271,2.51533 -4.010926,0 -6.458271,-2.51533 -2.481335,-2.48133 -2.481335,-6.6622 0,-4.18088 2.481335,-6.66222 2.447345,-2.51533 6.458271,-2.51533 4.010926,0 6.458271,2.48134 2.447344,2.48132 2.447344,6.69621 z m -12.270714,4.18088 q 1.223672,1.46161 3.365099,1.46161 2.141427,0 3.331108,-1.46161 1.223672,-1.4956 1.223672,-4.18088 0,-2.68528 -1.223672,-4.14689 -1.189681,-1.4956 -3.331108,-1.4956 -2.141427,0 -3.365099,1.46161 -1.189681,1.4616 -1.189681,4.18088 0,2.71927 1.189681,4.18088 z" style="font-weight:bold;font-size:33.9909px;line-height:1.25;font-family:'Helvetica Now Display';-inkscape-font-specification:'Helvetica Now Display Bold';letter-spacing:-1.05833px;word-spacing:-1.32292px;fill:black;stroke:none;stroke-width:1.48235" id="path4748" />
  <path d="m 56.68748,114.71016 q 2.855235,0 4.486798,1.66556 1.665554,1.63156 1.665554,4.65675 v 11.62489 h -4.282853 v -10.91107 q 0,-3.33111 -3.297117,-3.33111 -1.631563,0 -2.787254,1.18968 -1.121699,1.15569 -1.121699,3.22914 v 9.82337 h -4.282854 v -17.53931 h 4.14689 v 2.51533 q 2.005463,-2.92322 5.472535,-2.92323 z" style="font-weight:bold;font-size:33.9909px;line-height:1.25;font-family:'Helvetica Now Display';-inkscape-font-specification:'Helvetica Now Display Bold';letter-spacing:-1.05833px;word-spacing:-1.32292px;fill:black;stroke:none;stroke-width:1.48235" id="path4750" />
  <path d="m 73.780238,115.11805 v 3.26313 h -3.467076 v 9.48346 q 0,0.84977 0.441882,1.18968 0.475872,0.33991 1.563581,0.33991 h 1.461613 v 3.26313 q -1.393631,0.13596 -2.243404,0.13596 -2.855235,0 -4.18088,-1.05372 -1.291654,-1.0877 -1.291654,-3.43307 v -9.92535 h -2.719272 v -3.26313 H 66.0643 v -5.09863 h 4.248862 v 5.09863 z" style="font-weight:bold;font-size:33.9909px;line-height:1.25;font-family:'Helvetica Now Display';-inkscape-font-specification:'Helvetica Now Display Bold';letter-spacing:-1.05833px;word-spacing:-1.32292px;fill:black;stroke:none;stroke-width:1.48235" id="path4752" />
  <path d="m 90.906978,132.65736 h -4.28285 q -0.30592,-0.54386 -0.47588,-2.14143 -1.76752,2.54932 -5.64248,2.54932 -2.88923,0 -4.62277,-1.39363 -1.69954,-1.39363 -1.69954,-3.87496 0,-4.79272 6.7302,-5.47254 l 2.65129,-0.23793 q 1.32564,-0.16996 1.90349,-0.61184 0.57784,-0.47587 0.57784,-1.39362 0,-1.1217 -0.7478,-1.63157 -0.71381,-0.54385 -2.44734,-0.54385 -1.8695,0 -2.68528,0.64583 -0.81578,0.61183 -0.95175,2.14142 h -4.21487 q 0.3739,-5.9824 7.88589,-5.9824 7.30804,0 7.30804,5.26859 v 9.3475 q 0,2.31138 0.71381,3.33111 z m -9.38149,-2.65129 q 2.00547,0 3.26313,-1.0877 1.25766,-1.1217 1.25766,-3.19515 v -1.59757 q -0.61183,0.54386 -2.00546,0.71381 l -2.31138,0.27193 q -1.69955,0.20394 -2.44735,0.81578 -0.71381,0.57785 -0.71381,1.69954 0,1.1217 0.7478,1.76752 0.78179,0.61184 2.20941,0.61184 z" style="font-weight:bold;font-size:33.9909px;line-height:1.25;font-family:'Helvetica Now Display';-inkscape-font-specification:'Helvetica Now Display Bold';letter-spacing:-1.05833px;word-spacing:-1.32292px;fill:black;stroke:none;stroke-width:1.48235" id="path4754" />
  <path d="m 102.01738,114.71016 q 2.85523,0 4.4868,1.66556 1.66555,1.63156 1.66555,4.65675 v 11.62489 h -4.28285 v -10.91107 q 0,-3.33111 -3.29712,-3.33111 -1.631562,0 -2.787252,1.18968 -1.1217,1.15569 -1.1217,3.22914 v 9.82337 h -4.28286 v -17.53931 h 4.14689 v 2.51533 q 2.00547,-2.92322 5.472542,-2.92323 z" style="font-weight:bold;font-size:33.9909px;line-height:1.25;font-family:'Helvetica Now Display';-inkscape-font-specification:'Helvetica Now Display Bold';letter-spacing:-1.05833px;word-spacing:-1.32292px;fill:black;stroke:none;stroke-width:1.48235" id="path4756" />
  <path d="m 126.35025,132.65736 h -4.28285 q -0.30592,-0.54386 -0.47588,-2.14143 -1.76752,2.54932 -5.64249,2.54932 -2.88922,0 -4.62276,-1.39363 -1.69954,-1.39363 -1.69954,-3.87496 0,-4.79272 6.73019,-5.47254 l 2.65129,-0.23793 q 1.32565,-0.16996 1.90349,-0.61184 0.57785,-0.47587 0.57785,-1.39362 0,-1.1217 -0.7478,-1.63157 -0.71381,-0.54385 -2.44734,-0.54385 -1.8695,0 -2.68529,0.64583 -0.81578,0.61183 -0.95174,2.14142 h -4.21487 q 0.3739,-5.9824 7.88589,-5.9824 7.30804,0 7.30804,5.26859 v 9.3475 q 0,2.31138 0.71381,3.33111 z m -9.38149,-2.65129 q 2.00546,0 3.26313,-1.0877 1.25766,-1.1217 1.25766,-3.19515 v -1.59757 q -0.61184,0.54386 -2.00546,0.71381 l -2.31138,0.27193 q -1.69955,0.20394 -2.44735,0.81578 -0.71381,0.57785 -0.71381,1.69954 0,1.1217 0.7478,1.76752 0.78179,0.61184 2.20941,0.61184 z" style="font-weight:bold;font-size:33.9909px;line-height:1.25;font-family:'Helvetica Now Display';-inkscape-font-specification:'Helvetica Now Display Bold';letter-spacing:-1.05833px;word-spacing:-1.32292px;fill:black;stroke:none;stroke-width:1.48235" id="path4758" />
  <path d="m 131.6123,108.45585 h 20.12261 v 4.1129 h -7.74992 v 20.08861 h -4.62276 v -20.08861 h -7.74993 z" style="font-weight:bold;font-size:33.9909px;line-height:1.25;font-family:'Helvetica Now Display';-inkscape-font-specification:'Helvetica Now Display Bold';letter-spacing:-1.05833px;word-spacing:-1.32292px;fill:black;stroke:none;stroke-width:1.48235" id="path4760" />
  <path d="m 166.04038,124.19362 v 1.01974 h -13.12049 q 0.23794,2.2434 1.39363,3.39908 1.18968,1.1217 3.16115,1.1217 2.92322,0 4.01093,-2.51532 h 4.1129 q -0.67982,2.68529 -2.85524,4.28285 -2.17542,1.56358 -5.30258,1.56358 -3.90895,0 -6.3223,-2.51533 -2.41336,-2.51532 -2.41336,-6.6622 0,-4.14689 2.37936,-6.66222 2.41336,-2.51533 6.28832,-2.51533 3.97694,0 6.32231,2.6173 2.34537,2.6173 2.34537,6.86615 z m -8.70167,-6.15235 q -3.77299,0 -4.38483,4.18088 h 8.80365 q -0.27193,-1.93748 -1.42762,-3.05918 -1.15569,-1.1217 -2.9912,-1.1217 z" style="font-weight:bold;font-size:33.9909px;line-height:1.25;font-family:'Helvetica Now Display';-inkscape-font-specification:'Helvetica Now Display Bold';letter-spacing:-1.05833px;word-spacing:-1.32292px;fill:black;stroke:none;stroke-width:1.48235" id="path4762" />
  <path d="m 172.01814,132.65736 h -4.28285 v -24.20151 h 4.28285 z" style="font-weight:bold;font-size:33.9909px;line-height:1.25;font-family:'Helvetica Now Display';-inkscape-font-specification:'Helvetica Now Display Bold';letter-spacing:-1.05833px;word-spacing:-1.32292px;fill:black;stroke:none;stroke-width:1.48235" id="path4764" />
  <path d="m 190.9804,124.19362 v 1.01974 h -13.12049 q 0.23794,2.2434 1.39363,3.39908 1.18968,1.1217 3.16115,1.1217 2.92322,0 4.01093,-2.51532 h 4.1129 q -0.67982,2.68529 -2.85524,4.28285 -2.17542,1.56358 -5.30258,1.56358 -3.90895,0 -6.32231,-2.51533 -2.41335,-2.51532 -2.41335,-6.6622 0,-4.14689 2.37936,-6.66222 2.41336,-2.51533 6.28832,-2.51533 3.97693,0 6.32231,2.6173 2.34537,2.6173 2.34537,6.86615 z m -8.70167,-6.15235 q -3.77299,0 -4.38483,4.18088 h 8.80364 q -0.27192,-1.93748 -1.42761,-3.05918 -1.15569,-1.1217 -2.9912,-1.1217 z" style="font-weight:bold;font-size:33.9909px;line-height:1.25;font-family:'Helvetica Now Display';-inkscape-font-specification:'Helvetica Now Display Bold';letter-spacing:-1.05833px;word-spacing:-1.32292px;fill:black;stroke:none;stroke-width:1.48235" id="path4766" />
  <path d="m 201.98874,119.80881 1.69955,-4.69076 h 4.45281 l -6.52626,17.53931 h -4.92868 l -6.49226,-17.53931 h 4.58877 l 1.69955,4.72474 q 1.18968,3.70501 2.75326,8.93961 1.25766,-4.21488 2.75326,-8.97359 z" style="font-weight:bold;font-size:33.9909px;line-height:1.25;font-family:'Helvetica Now Display';-inkscape-font-specification:'Helvetica Now Display Bold';letter-spacing:-1.05833px;word-spacing:-1.32292px;fill:black;stroke:none;stroke-width:1.48235" id="path4768" />
  <path d="m 212.9971,112.84067 h -4.21487 v -4.01092 h 4.21487 z m 0.034,19.81669 h -4.28285 v -17.53931 h 4.28285 z" style="font-weight:bold;font-size:33.9909px;line-height:1.25;font-family:'Helvetica Now Display';-inkscape-font-specification:'Helvetica Now Display Bold';letter-spacing:-1.05833px;word-spacing:-1.32292px;fill:black;stroke:none;stroke-width:1.48235" id="path4770" />
  <path d="m 222.33995,133.13324 q -7.68194,0 -8.02185,-6.05038 h 4.18088 q 0.16996,1.63156 1.05372,2.31138 0.91775,0.67982 2.85523,0.67982 3.46708,0 3.46708,-2.10744 0,-0.95174 -0.7478,-1.4616 -0.7478,-0.50987 -2.68529,-0.84978 l -2.00546,-0.33991 q -5.74446,-0.95174 -5.74446,-5.30258 0,-2.48133 1.90349,-3.87496 1.90349,-1.42762 5.37056,-1.42762 7.51199,0 7.74993,5.94841 h -4.04492 q -0.068,-1.56358 -0.98574,-2.20941 -0.91775,-0.67982 -2.71927,-0.67982 -3.05918,0 -3.05918,2.03946 0,0.88376 0.67982,1.39363 0.67982,0.47587 2.2434,0.74779 l 2.20941,0.33991 q 3.19514,0.57785 4.62276,1.83551 1.46161,1.25767 1.46161,3.50106 0,2.65129 -2.03946,4.07891 -2.03945,1.42762 -5.74446,1.42762 z" style="font-weight:bold;font-size:33.9909px;line-height:1.25;font-family:'Helvetica Now Display';-inkscape-font-specification:'Helvetica Now Display Bold';letter-spacing:-1.05833px;word-spacing:-1.32292px;fill:black;stroke:none;stroke-width:1.48235" id="path4772" />
  <path d="m 235.59174,112.84067 h -4.21487 v -4.01092 h 4.21487 z m 0.034,19.81669 h -4.28285 v -17.53931 h 4.28285 z" style="font-weight:bold;font-size:33.9909px;line-height:1.25;font-family:'Helvetica Now Display';-inkscape-font-specification:'Helvetica Now Display Bold';letter-spacing:-1.05833px;word-spacing:-1.32292px;fill:black;stroke:none;stroke-width:1.48235" id="path4774" />
  <path d="m 255.09785,123.88772 q 0,4.14689 -2.44734,6.6622 -2.44735,2.51533 -6.45827,2.51533 -4.01093,0 -6.45828,-2.51533 -2.48133,-2.48133 -2.48133,-6.6622 0,-4.18088 2.48133,-6.66222 2.44735,-2.51533 6.45828,-2.51533 4.01092,0 6.45827,2.48134 2.44734,2.48132 2.44734,6.69621 z m -12.27071,4.18088 q 1.22367,1.46161 3.3651,1.46161 2.14142,0 3.3311,-1.46161 1.22368,-1.4956 1.22368,-4.18088 0,-2.68528 -1.22368,-4.14689 -1.18968,-1.4956 -3.3311,-1.4956 -2.14143,0 -3.3651,1.46161 -1.18969,1.4616 -1.18969,4.18088 0,2.71927 1.18969,4.18088 z" style="font-weight:bold;font-size:33.9909px;line-height:1.25;font-family:'Helvetica Now Display';-inkscape-font-specification:'Helvetica Now Display Bold';letter-spacing:-1.05833px;word-spacing:-1.32292px;fill:black;stroke:none;stroke-width:1.48235" id="path4776" />
  <path d="m 266.3442,114.71016 q 2.85523,0 4.4868,1.66556 1.66555,1.63156 1.66555,4.65675 v 11.62489 h -4.28285 v -10.91107 q 0,-3.33111 -3.29712,-3.33111 -1.63156,0 -2.78725,1.18968 -1.1217,1.15569 -1.1217,3.22914 v 9.82337 h -4.28286 v -17.53931 h 4.14689 v 2.51533 q 2.00547,-2.92322 5.47254,-2.92323 z" style="font-weight:bold;font-size:33.9909px;line-height:1.25;font-family:'Helvetica Now Display';-inkscape-font-specification:'Helvetica Now Display Bold';letter-spacing:-1.05833px;word-spacing:-1.32292px;fill:black;stroke:none;stroke-width:1.48235" id="path4778" />
  <path d="m 296.11372,114.77815 v -6.3223 h 4.41882 v 24.20151 h -5.09864 l -6.7302,-10.77511 q -2.75326,-4.31685 -4.31684,-7.27405 0.13596,3.80698 0.13596,11.72686 v 6.3223 h -4.41881 v -24.20151 h 5.09863 l 6.76419,10.77511 q 3.02519,4.89469 4.28285,7.27406 -0.13596,-5.06465 -0.13596,-11.72687 z" style="font-weight:bold;font-size:33.9909px;line-height:1.25;font-family:'Helvetica Now Display';-inkscape-font-specification:'Helvetica Now Display Bold';letter-spacing:-1.05833px;word-spacing:-1.32292px;fill:black;stroke:none;stroke-width:1.48235" id="path4780" />
  <path d="m 319.69872,124.19362 v 1.01974 h -13.12049 q 0.23794,2.2434 1.39363,3.39908 1.18968,1.1217 3.16115,1.1217 2.92322,0 4.01093,-2.51532 h 4.1129 q -0.67982,2.68529 -2.85524,4.28285 -2.17541,1.56358 -5.30258,1.56358 -3.90895,0 -6.3223,-2.51533 -2.41336,-2.51532 -2.41336,-6.6622 0,-4.14689 2.37936,-6.66222 2.41336,-2.51533 6.28832,-2.51533 3.97694,0 6.32231,2.6173 2.34537,2.6173 2.34537,6.86615 z m -8.70167,-6.15235 q -3.77299,0 -4.38483,4.18088 h 8.80365 q -0.27193,-1.93748 -1.42762,-3.05918 -1.15569,-1.1217 -2.9912,-1.1217 z" style="font-weight:bold;font-size:33.9909px;line-height:1.25;font-family:'Helvetica Now Display';-inkscape-font-specification:'Helvetica Now Display Bold';letter-spacing:-1.05833px;word-spacing:-1.32292px;fill:black;stroke:none;stroke-width:1.48235" id="path4782" />
  <path d="m 329.65336,115.11805 v 3.26313 h -3.46707 v 9.48346 q 0,0.84977 0.44188,1.18968 0.47587,0.33991 1.56358,0.33991 h 1.46161 v 3.26313 q -1.39363,0.13596 -2.2434,0.13596 -2.85524,0 -4.18088,-1.05372 -1.29166,-1.0877 -1.29166,-3.43307 v -9.92534 h -2.71927 v -3.26313 h 2.71927 v -5.09863 h 4.24887 v 5.09863 z" style="font-weight:bold;font-size:33.9909px;line-height:1.25;font-family:'Helvetica Now Display';-inkscape-font-specification:'Helvetica Now Display Bold';letter-spacing:-1.05833px;word-spacing:-1.32292px;fill:black;stroke:none;stroke-width:1.48235" id="path4784" />
  <path d="m 350.79103,121.6783 1.97147,-6.56025 h 4.58877 l -5.77845,17.53931 h -4.4868 l -2.2094,-7.20607 q -1.25767,-4.41882 -1.4956,-5.2346 -0.10198,0.3739 -1.46161,5.2346 l -2.17542,7.20607 h -4.4868 l -5.77845,-17.53931 h 4.58877 l 1.97147,6.56025 q 0.7478,2.34537 1.73354,6.08438 0.95174,-3.77299 1.66555,-6.11836 l 1.93748,-6.52627 h 4.07891 l 1.93748,6.52627 q 0.71381,2.34537 1.66556,6.11836 0.88376,-3.36511 1.73353,-6.08438 z" style="font-weight:bold;font-size:33.9909px;line-height:1.25;font-family:'Helvetica Now Display';-inkscape-font-specification:'Helvetica Now Display Bold';letter-spacing:-1.05833px;word-spacing:-1.32292px;fill:black;stroke:none;stroke-width:1.48235" id="path4786" />
  <path d="m 374.30804,123.88772 q 0,4.14689 -2.44734,6.6622 -2.44735,2.51533 -6.45828,2.51533 -4.01092,0 -6.45827,-2.51533 -2.48133,-2.48133 -2.48133,-6.6622 0,-4.18088 2.48133,-6.66222 2.44735,-2.51533 6.45827,-2.51533 4.01093,0 6.45828,2.48134 2.44734,2.48132 2.44734,6.69621 z m -12.27071,4.18088 q 1.22367,1.46161 3.36509,1.46161 2.14143,0 3.33111,-1.46161 1.22368,-1.4956 1.22368,-4.18088 0,-2.68528 -1.22368,-4.14689 -1.18968,-1.4956 -3.33111,-1.4956 -2.14142,0 -3.36509,1.46161 -1.18969,1.4616 -1.18969,4.18088 0,2.71927 1.18969,4.18088 z" style="font-weight:bold;font-size:33.9909px;line-height:1.25;font-family:'Helvetica Now Display';-inkscape-font-specification:'Helvetica Now Display Bold';letter-spacing:-1.05833px;word-spacing:-1.32292px;fill:black;stroke:none;stroke-width:1.48235" id="path4788" />
  <path d="m 385.31647,114.84614 q 0.57784,0 1.05371,0.068 v 3.94294 h -1.08771 q -2.44734,0 -3.77298,1.25767 -1.29166,1.22366 -1.29166,3.63702 v 8.90561 h -4.28285 v -17.5393 h 4.14689 v 3.12717 q 1.46161,-3.39909 5.2346,-3.39909 z" style="font-weight:bold;font-size:33.9909px;line-height:1.25;font-family:'Helvetica Now Display';-inkscape-font-specification:'Helvetica Now Display Bold';letter-spacing:-1.05833px;word-spacing:-1.32292px;fill:black;stroke:none;stroke-width:1.48235" id="path4790" />
  <path d="m 404.48263,132.65736 h -4.89468 l -5.09864,-8.15781 -2.65129,2.65129 v 5.50652 h -4.21487 v -24.20151 h 4.21487 v 13.93627 l 7.13809,-7.27406 h 5.09863 l -6.62822,6.62823 z" style="font-weight:bold;font-size:33.9909px;line-height:1.25;font-family:'Helvetica Now Display';-inkscape-font-specification:'Helvetica Now Display Bold';letter-spacing:-1.05833px;word-spacing:-1.32292px;fill:black;stroke:none;stroke-width:1.48235" id="path4792" />
  <path id="path16555" style="fill:#0f165e;fill-opacity:1;stroke:none;stroke-width:0.264583px;stroke-linecap:butt;stroke-linejoin:miter;stroke-opacity:1" d="m 345.34842,0.46794025 c -1.27389,0.0798645 -2.74479,1.62417655 -5.34178,5.79447815 -3.46268,5.5603986 -8.93752,15.7948656 -12.29228,21.9893536 -3.35475,6.194499 -4.5889,8.348692 -5.99601,8.643401 -1.40711,0.2947 -2.98765,-1.270363 -4.72736,-2.919201 -1.73972,-1.648841 -3.63847,-3.381312 -5.10614,-4.110861 -1.4677,-0.72954 -2.50386,-0.455525 -4.25659,2.176095 -1.75276,2.631609 -4.22185,7.620656 -7.07451,13.347504 -2.85266,5.726851 -6.08865,12.190841 -8.1964,15.17065 -2.10777,2.979812 -3.08771,2.475344 -5.00695,0.334865 -1.9192,-2.140482 -4.7776,-5.916822 -6.78407,-8.173662 -2.00644,-2.25683 -3.12518,-2.971393 -5.18935,-1.595252 -2.06412,1.37614 -4.99888,4.884081 -9.09815,13.82758 -4.09927,8.943501 -9.35585,23.313813 -11.98428,30.498914 -2.62842,7.185095 -2.51663,7.364405 -2.51663,7.364405 0,0 13.43448,-17.744382 17.21548,-22.441522 3.78098,-4.6971 4.90551,-4.771128 5.83787,-4.741828 0.9324,0.02926 1.67246,0.161751 4.81523,4.030761 3.14275,3.86901 8.68815,11.47441 11.7166,15.27762 3.02842,3.803211 3.53917,3.804262 9.04232,-1.881539 5.50318,-5.68579 15.99896,-17.058531 21.8054,-22.766051 5.80644,-5.707521 6.9233,-5.749491 8.27236,-4.984192 1.34905,0.765299 2.8998,2.307347 5.10667,4.326866 2.20689,2.019512 5.00882,4.456105 6.88588,5.685441 1.87706,1.229341 2.82938,1.252037 5.10202,-0.901753 2.27263,-2.153798 5.86591,-6.484062 8.31164,-8.818584 2.44571,-2.334088 3.7433,-2.673268 4.99761,-2.343007 1.25434,0.330245 2.46526,1.329312 8.45582,8.321971 5.99059,6.992649 31.55156,35.782307 31.55156,35.782307 0,0 -32.4037,-66.542794 -41.58969,-84.556074 C 350.11867,4.7933379 348.25233,1.856963 346.59125,0.83329278 346.17598,0.57737191 345.77305,0.44131787 345.34842,0.46794025 Z" />
</svg>
