<svg width="50" height="40" viewBox="0 0 50 40" fill="none" xmlns="http://www.w3.org/2000/svg">
<path d="M42.3938 15.5825C42.2593 13.4797 41.8098 11.7716 40.3444 10.0133C37.4118 6.49602 30.6716 5.91047 27.6523 9.2965C27.1272 9.79454 26.6308 10.3944 26.1319 11.1112L25.003 12.7335L23.8741 11.1112C23.3736 10.3952 22.8756 9.79454 22.3497 9.2965C19.3328 5.91047 12.5918 6.49523 9.65925 10.0133C8.19297 11.7724 7.74187 13.4805 7.60742 15.5825C7.41648 21.8342 11.9537 26.8401 12.5138 27.572C15.5928 31.184 18.9517 34.6002 22.3632 37.7468C22.9806 38.2878 23.5137 38.7357 24.0467 39.182C24.3673 39.4446 24.6832 39.7087 25.0022 39.9689C25.3194 39.7079 25.6366 39.4457 25.9537 39.182C26.4892 38.7357 27.0222 38.2878 27.638 37.7468C31.0503 34.6002 34.4093 31.184 37.4882 27.572C38.0499 26.8377 42.5871 21.8318 42.3938 15.5825Z" fill="#D13852"/>
<path d="M40.5072 14.4664C40.5026 13.9275 40.4187 13.3922 40.2582 12.8777C40.1126 12.4075 39.8976 11.9618 39.6201 11.5554C37.9955 9.16861 34.4575 8.30858 31.5003 8.91323C30.3483 9.19089 29.1931 9.62449 28.6616 10.7256C28.4803 11.1982 28.8621 11.4249 29.4485 11.3963C31.5751 11.1584 33.9293 11.3724 35.81 12.2865C36.2794 12.5146 36.7151 12.7883 37.1172 13.1076C38.4665 14.1522 39.0497 15.7776 39.3162 17.3886C39.9702 17.2566 40.329 16.4697 40.4125 15.7688C40.4936 15.3397 40.5254 14.9028 40.5072 14.4664Z" fill="#F1A5B1"/>
<path d="M42.6925 8.46792C43.8273 9.9593 44.3482 11.8284 44.1484 13.6918C45.5439 11.7744 45.6346 9.13622 44.1548 7.18225C42.5787 5.09382 39.7568 4.48042 37.4297 5.57516C38.4617 5.65784 39.4644 5.9585 40.3716 6.45729C41.2788 6.95608 42.0698 7.64085 42.6925 8.46792Z" fill="#FAAE40"/>
<path d="M45.7043 5.80795C47.6208 8.3362 48.5014 11.5 48.1666 14.6549C50.5351 11.4065 50.6823 6.93848 48.1794 3.62883C45.499 0.0852711 40.7247 -0.948201 36.7857 0.905524C38.534 1.04747 40.2324 1.55765 41.7695 2.40257C43.3066 3.24749 44.6475 4.40802 45.7043 5.80795ZM7.30512 8.4692C6.17271 9.9618 5.65152 11.8298 5.8476 13.693C4.45452 11.7757 4.36302 9.13749 5.84282 7.18353C7.42127 5.0951 10.24 4.4817 12.5687 5.57643C11.5366 5.65901 10.5338 5.95962 9.62644 6.45841C8.7191 6.9572 7.9279 7.64203 7.30512 8.4692Z" fill="#FAAE40"/>
<path d="M4.29733 5.80795C2.3781 8.33486 1.49748 11.4999 1.83577 14.6549C-0.531902 11.4065 -0.685451 6.93848 1.82066 3.62883C4.50259 0.0852711 9.27852 -0.948201 13.2175 0.905524C9.83146 1.18557 6.54328 2.83563 4.29733 5.80795Z" fill="#FAAE40"/>
</svg>
