<svg width="68" height="34" viewBox="0 0 68 34" fill="none" xmlns="http://www.w3.org/2000/svg">
<path d="M11 6.5C16.7992 6.5 21.5 11.2008 21.5 17V17.001C21.5027 19.0854 20.8825 21.1233 19.7188 22.8525L19.7178 22.8535C19.5977 23.0329 19.472 23.2079 19.3408 23.3789L19.1885 23.5771V23.5801L18.9727 23.832V23.833C18.3827 24.5221 17.7056 25.1314 16.959 25.6465L16.958 25.6475C15.3968 26.7264 13.5708 27.3591 11.6768 27.4785C11.4527 27.4925 11.2272 27.5 11 27.5L10.7158 27.4961C9.29806 27.4589 7.90157 27.1346 6.61133 26.541C5.23508 25.9079 4.01203 24.9842 3.02734 23.833V23.832L2.81055 23.5801L2.81152 23.5771L2.65918 23.3789C1.25588 21.5492 0.49675 19.3069 0.5 17.001V17C0.5 11.2008 5.20085 6.5 11 6.5ZM11 7.7002C9.37351 7.69991 7.7755 8.1262 6.36523 8.93652C4.95498 9.7469 3.78169 10.913 2.96289 12.3184C2.14409 13.7239 1.70764 15.3197 1.69824 16.9463C1.68886 18.5729 2.10665 20.174 2.90918 21.5889L3.28125 22.2441L3.74023 21.6465C4.20674 21.0402 4.80667 20.5494 5.49316 20.2119C6.17957 19.8744 6.93434 19.6994 7.69922 19.7002H14.3008C15.0657 19.6994 15.8204 19.8744 16.5068 20.2119C17.1933 20.5494 17.7933 21.0402 18.2598 21.6465L18.7188 22.2441L19.0908 21.5889C19.8934 20.174 20.3111 18.5729 20.3018 16.9463C20.2924 15.3197 19.8559 13.7239 19.0371 12.3184C18.2183 10.913 17.045 9.7469 15.6348 8.93652C14.3127 8.17687 12.8256 7.75466 11.3047 7.70508L11 7.7002ZM11 10.9004C11.7424 10.9004 12.4544 11.1949 12.9795 11.7197C13.5046 12.2448 13.7998 12.9576 13.7998 13.7002C13.7998 14.4427 13.5045 15.1546 12.9795 15.6797C12.4544 16.2047 11.7426 16.5 11 16.5C10.2574 16.5 9.5456 16.2047 9.02051 15.6797C8.49545 15.1546 8.20025 14.4427 8.2002 13.7002C8.2002 12.9576 8.49541 12.2448 9.02051 11.7197C9.54557 11.1949 10.2576 10.9004 11 10.9004Z" fill="#0088FF" stroke="#FEB032"/>
<path d="M34 0.5C43.1129 0.5 50.5 7.88704 50.5 17V17.001C50.5042 20.2767 49.5291 23.4787 47.7002 26.1963L47.6992 26.1973C47.5103 26.4795 47.3129 26.7554 47.1064 27.0244L46.9541 27.2227L46.958 27.2373L46.5293 27.7363H46.5283C45.717 28.684 44.8013 29.5367 43.7988 30.2773L43.3633 30.5879C41.0629 32.1777 38.3971 33.1517 35.6201 33.4219L35.0635 33.4668C34.7113 33.4888 34.3569 33.5 34 33.5L33.5537 33.4941C31.3257 33.4358 29.1311 32.9259 27.1035 31.9932C24.9408 30.9983 23.0191 29.5464 21.4717 27.7373L21.4707 27.7363L21.041 27.2373L21.0459 27.2227L20.8936 27.0244C18.6881 24.1488 17.4949 20.6249 17.5 17.001V17C17.5 7.88705 24.8871 0.500001 34 0.5ZM34 2.90039C31.534 2.89995 29.1109 3.5458 26.9727 4.77441C24.8344 6.0031 23.0559 7.77146 21.8145 9.90234C20.573 12.0333 19.9117 14.4528 19.8975 16.9189C19.8833 19.385 20.5167 21.812 21.7334 23.957L22.1045 24.6123L22.5645 24.0146C23.3109 23.0446 24.2707 22.2588 25.3691 21.7188C26.4675 21.1788 27.6755 20.8991 28.8994 20.9004H39.1006C40.3245 20.8991 41.5325 21.1788 42.6309 21.7188C43.7293 22.2588 44.6891 23.0446 45.4355 24.0146L45.8955 24.6123L46.2666 23.957C47.4833 21.812 48.1167 19.385 48.1025 16.9189C48.0883 14.4528 47.427 12.0333 46.1855 9.90234C44.9441 7.77146 43.1656 6.0031 41.0273 4.77441C39.0228 3.6226 36.7679 2.98239 34.4619 2.90723L34 2.90039ZM34 7.2998C35.22 7.2998 36.3903 7.78479 37.2529 8.64746C38.1155 9.51011 38.5996 10.6805 38.5996 11.9004C38.5995 13.1201 38.1153 14.2898 37.2529 15.1523C36.3903 16.015 35.22 16.5 34 16.5C32.78 16.5 31.6097 16.015 30.7471 15.1523C29.8847 14.2898 29.4005 13.1201 29.4004 11.9004C29.4004 10.6805 29.8845 9.51011 30.7471 8.64746C31.6097 7.78479 32.78 7.29981 34 7.2998Z" fill="#0088FF" stroke="#FEB032"/>
<path d="M57 6.5C62.7992 6.5 67.5 11.2008 67.5 17V17.001C67.5027 19.0854 66.8825 21.1233 65.7188 22.8525L65.7178 22.8535C65.5977 23.0329 65.472 23.2079 65.3408 23.3789L65.1885 23.5771V23.5801L64.9727 23.832V23.833C64.3827 24.5221 63.7056 25.1314 62.959 25.6465L62.958 25.6475C61.3968 26.7264 59.5708 27.3591 57.6768 27.4785C57.4527 27.4925 57.2272 27.5 57 27.5L56.7158 27.4961C55.2981 27.4589 53.9016 27.1346 52.6113 26.541C51.2351 25.9079 50.012 24.9842 49.0273 23.833V23.832L48.8105 23.5801L48.8115 23.5771L48.6592 23.3789C47.2559 21.5492 46.4967 19.3069 46.5 17.001V17C46.5 11.2008 51.2008 6.5 57 6.5ZM57 7.7002C55.3735 7.69991 53.7755 8.1262 52.3652 8.93652C50.955 9.7469 49.7817 10.913 48.9629 12.3184C48.1441 13.7239 47.7076 15.3197 47.6982 16.9463C47.6889 18.5729 48.1066 20.174 48.9092 21.5889L49.2812 22.2441L49.7402 21.6465C50.2067 21.0402 50.8067 20.5494 51.4932 20.2119C52.1796 19.8744 52.9343 19.6994 53.6992 19.7002H60.3008C61.0657 19.6994 61.8204 19.8744 62.5068 20.2119C63.1933 20.5494 63.7933 21.0402 64.2598 21.6465L64.7188 22.2441L65.0908 21.5889C65.8934 20.174 66.3111 18.5729 66.3018 16.9463C66.2924 15.3197 65.8559 13.7239 65.0371 12.3184C64.2183 10.913 63.045 9.7469 61.6348 8.93652C60.3127 8.17687 58.8256 7.75466 57.3047 7.70508L57 7.7002ZM57 10.9004C57.7424 10.9004 58.4544 11.1949 58.9795 11.7197C59.5046 12.2448 59.7998 12.9576 59.7998 13.7002C59.7998 14.4427 59.5045 15.1546 58.9795 15.6797C58.4544 16.2047 57.7426 16.5 57 16.5C56.2574 16.5 55.5456 16.2047 55.0205 15.6797C54.4955 15.1546 54.2002 14.4427 54.2002 13.7002C54.2002 12.9576 54.4954 12.2448 55.0205 11.7197C55.5456 11.1949 56.2576 10.9004 57 10.9004Z" fill="#0088FF" stroke="#FEB032"/>
</svg>
