<svg width="34" height="34" viewBox="0 0 34 34" fill="none" xmlns="http://www.w3.org/2000/svg">
<path d="M9.91667 12.75V11.3334C9.91667 10.9576 9.76741 10.5973 9.50173 10.3316C9.23606 10.066 8.87572 9.9167 8.5 9.9167C8.12428 9.9167 7.76394 10.066 7.49827 10.3316C7.23259 10.5973 7.08333 10.9576 7.08333 11.3334V12.75H5.66667C5.29094 12.75 4.93061 12.8993 4.66493 13.165C4.39926 13.4306 4.25 13.791 4.25 14.1667C4.25 14.5424 4.39926 14.9028 4.66493 15.1684C4.93061 15.4341 5.29094 15.5834 5.66667 15.5834H7.08333V17C7.08333 17.3758 7.23259 17.7361 7.49827 18.0018C7.76394 18.2674 8.12428 18.4167 8.5 18.4167C8.87572 18.4167 9.23606 18.2674 9.50173 18.0018C9.76741 17.7361 9.91667 17.3758 9.91667 17V15.5834H11.3333C11.7091 15.5834 12.0694 15.4341 12.3351 15.1684C12.6007 14.9028 12.75 14.5424 12.75 14.1667C12.75 13.791 12.6007 13.4306 12.3351 13.165C12.0694 12.8993 11.7091 12.75 11.3333 12.75H9.91667ZM13.2005 7.08337H20.7995C22.0802 6.23333 23.5675 5.7465 25.1029 5.67469C26.6384 5.60288 28.1646 5.94878 29.519 6.67558C30.8735 7.40237 32.0055 8.48285 32.7946 9.802C33.5836 11.1211 34.0002 12.6296 34 14.1667C34 18.8615 30.1948 28.3334 25.5 28.3334C22.7007 28.3334 20.2173 24.9645 18.6688 21.25H15.3312C13.7842 24.9645 11.2993 28.3334 8.5 28.3334C3.80517 28.3334 9.8338e-08 18.8615 9.8338e-08 14.1667C-0.000233682 12.6296 0.416362 11.1211 1.20544 9.802C1.99451 8.48285 3.12653 7.40237 4.48099 6.67558C5.83544 5.94878 7.36163 5.60288 8.89709 5.67469C10.4325 5.7465 11.9198 6.23333 13.2005 7.08337ZM25.5 12.75C25.8757 12.75 26.2361 12.6008 26.5017 12.3351C26.7674 12.0694 26.9167 11.7091 26.9167 11.3334C26.9167 10.9576 26.7674 10.5973 26.5017 10.3316C26.2361 10.066 25.8757 9.9167 25.5 9.9167C25.1243 9.9167 24.7639 10.066 24.4983 10.3316C24.2326 10.5973 24.0833 10.9576 24.0833 11.3334C24.0833 11.7091 24.2326 12.0694 24.4983 12.3351C24.7639 12.6008 25.1243 12.75 25.5 12.75ZM22.6667 15.5834C23.0424 15.5834 23.4027 15.4341 23.6684 15.1684C23.9341 14.9028 24.0833 14.5424 24.0833 14.1667C24.0833 13.791 23.9341 13.4306 23.6684 13.165C23.4027 12.8993 23.0424 12.75 22.6667 12.75C22.2909 12.75 21.9306 12.8993 21.6649 13.165C21.3993 13.4306 21.25 13.791 21.25 14.1667C21.25 14.5424 21.3993 14.9028 21.6649 15.1684C21.9306 15.4341 22.2909 15.5834 22.6667 15.5834ZM28.3333 15.5834C28.7091 15.5834 29.0694 15.4341 29.3351 15.1684C29.6007 14.9028 29.75 14.5424 29.75 14.1667C29.75 13.791 29.6007 13.4306 29.3351 13.165C29.0694 12.8993 28.7091 12.75 28.3333 12.75C27.9576 12.75 27.5973 12.8993 27.3316 13.165C27.0659 13.4306 26.9167 13.791 26.9167 14.1667C26.9167 14.5424 27.0659 14.9028 27.3316 15.1684C27.5973 15.4341 27.9576 15.5834 28.3333 15.5834ZM25.5 18.4167C25.8757 18.4167 26.2361 18.2674 26.5017 18.0018C26.7674 17.7361 26.9167 17.3758 26.9167 17C26.9167 16.6243 26.7674 16.264 26.5017 15.9983C26.2361 15.7326 25.8757 15.5834 25.5 15.5834C25.1243 15.5834 24.7639 15.7326 24.4983 15.9983C24.2326 16.264 24.0833 16.6243 24.0833 17C24.0833 17.3758 24.2326 17.7361 24.4983 18.0018C24.7639 18.2674 25.1243 18.4167 25.5 18.4167Z" fill="url(#paint0_linear_102_133)"/>
<defs>
<linearGradient id="paint0_linear_102_133" x1="17" y1="5.66541" x2="17" y2="28.3334" gradientUnits="userSpaceOnUse">
<stop stop-color="#FF9E02"/>
<stop offset="0.38752" stop-color="#FF0042"/>
</linearGradient>
</defs>
</svg>
