<svg width="34" height="34" viewBox="0 0 34 34" fill="none" xmlns="http://www.w3.org/2000/svg">
<path d="M9.91667 12.75V11.3333C9.91667 10.9576 9.76741 10.5972 9.50173 10.3316C9.23606 10.0659 8.87572 9.91664 8.5 9.91664C8.12428 9.91664 7.76394 10.0659 7.49827 10.3316C7.23259 10.5972 7.08333 10.9576 7.08333 11.3333V12.75H5.66667C5.29094 12.75 4.93061 12.8992 4.66493 13.1649C4.39926 13.4306 4.25 13.7909 4.25 14.1666C4.25 14.5424 4.39926 14.9027 4.66493 15.1684C4.93061 15.434 5.29094 15.5833 5.66667 15.5833H7.08333V17C7.08333 17.3757 7.23259 17.736 7.49827 18.0017C7.76394 18.2674 8.12428 18.4166 8.5 18.4166C8.87572 18.4166 9.23606 18.2674 9.50173 18.0017C9.76741 17.736 9.91667 17.3757 9.91667 17V15.5833H11.3333C11.7091 15.5833 12.0694 15.434 12.3351 15.1684C12.6007 14.9027 12.75 14.5424 12.75 14.1666C12.75 13.7909 12.6007 13.4306 12.3351 13.1649C12.0694 12.8992 11.7091 12.75 11.3333 12.75H9.91667ZM13.2005 7.08331H20.7995C22.0802 6.23327 23.5675 5.74644 25.1029 5.67463C26.6384 5.60282 28.1646 5.94872 29.519 6.67552C30.8735 7.40231 32.0055 8.48279 32.7946 9.80193C33.5836 11.1211 34.0002 12.6295 34 14.1666C34 18.8615 30.1948 28.3333 25.5 28.3333C22.7007 28.3333 20.2173 24.9645 18.6688 21.25H15.3312C13.7842 24.9645 11.2993 28.3333 8.5 28.3333C3.80517 28.3333 9.8338e-08 18.8615 9.8338e-08 14.1666C-0.000233682 12.6295 0.416362 11.1211 1.20544 9.80193C1.99451 8.48279 3.12653 7.40231 4.48099 6.67552C5.83544 5.94872 7.36163 5.60282 8.89709 5.67463C10.4325 5.74644 11.9198 6.23327 13.2005 7.08331V7.08331ZM25.5 12.75C25.8757 12.75 26.2361 12.6007 26.5017 12.335C26.7674 12.0694 26.9167 11.709 26.9167 11.3333C26.9167 10.9576 26.7674 10.5972 26.5017 10.3316C26.2361 10.0659 25.8757 9.91664 25.5 9.91664C25.1243 9.91664 24.7639 10.0659 24.4983 10.3316C24.2326 10.5972 24.0833 10.9576 24.0833 11.3333C24.0833 11.709 24.2326 12.0694 24.4983 12.335C24.7639 12.6007 25.1243 12.75 25.5 12.75ZM22.6667 15.5833C23.0424 15.5833 23.4027 15.434 23.6684 15.1684C23.9341 14.9027 24.0833 14.5424 24.0833 14.1666C24.0833 13.7909 23.9341 13.4306 23.6684 13.1649C23.4027 12.8992 23.0424 12.75 22.6667 12.75C22.2909 12.75 21.9306 12.8992 21.6649 13.1649C21.3993 13.4306 21.25 13.7909 21.25 14.1666C21.25 14.5424 21.3993 14.9027 21.6649 15.1684C21.9306 15.434 22.2909 15.5833 22.6667 15.5833V15.5833ZM28.3333 15.5833C28.7091 15.5833 29.0694 15.434 29.3351 15.1684C29.6007 14.9027 29.75 14.5424 29.75 14.1666C29.75 13.7909 29.6007 13.4306 29.3351 13.1649C29.0694 12.8992 28.7091 12.75 28.3333 12.75C27.9576 12.75 27.5973 12.8992 27.3316 13.1649C27.0659 13.4306 26.9167 13.7909 26.9167 14.1666C26.9167 14.5424 27.0659 14.9027 27.3316 15.1684C27.5973 15.434 27.9576 15.5833 28.3333 15.5833ZM25.5 18.4166C25.8757 18.4166 26.2361 18.2674 26.5017 18.0017C26.7674 17.736 26.9167 17.3757 26.9167 17C26.9167 16.6242 26.7674 16.2639 26.5017 15.9982C26.2361 15.7326 25.8757 15.5833 25.5 15.5833C25.1243 15.5833 24.7639 15.7326 24.4983 15.9982C24.2326 16.2639 24.0833 16.6242 24.0833 17C24.0833 17.3757 24.2326 17.736 24.4983 18.0017C24.7639 18.2674 25.1243 18.4166 25.5 18.4166Z" fill="#D9D9D9"/>
</svg>
