<svg width="30" height="30" viewBox="0 0 30 30" fill="none" xmlns="http://www.w3.org/2000/svg">
<g clip-path="url(#clip0_102_326)">
<path d="M2.7655 16.875C5.06613 20.325 8.9605 24.1331 14.9999 28.125C21.0393 24.1331 24.9336 20.325 27.2343 16.875H22.4999C22.3127 16.8749 22.1297 16.8188 21.9747 16.7139C21.8196 16.609 21.6995 16.46 21.6299 16.2862L18.898 9.45746L15.9018 19.9443C15.8482 20.1324 15.7371 20.299 15.5842 20.4209C15.4312 20.5427 15.244 20.6136 15.0487 20.6238C14.8534 20.6339 14.6598 20.5827 14.495 20.4773C14.3303 20.372 14.2026 20.2177 14.1299 20.0362L11.0418 12.315L8.27988 16.4587C8.19413 16.5869 8.07809 16.6919 7.94203 16.7646C7.80597 16.8372 7.6541 16.8751 7.49988 16.875H2.7655Z" fill="#D9D9D9"/>
<path d="M1.64961 15.0003C-4.55102 3.15032 8.26836 -3.74968 14.6677 2.14345C14.7802 2.2472 14.8902 2.35407 14.9977 2.46407C15.1033 2.35338 15.2134 2.24704 15.3277 2.14532C21.7309 -3.74968 34.5484 3.15032 28.3496 15.0003H23.1315L19.6177 6.21407C19.545 6.03255 19.4173 5.87831 19.2526 5.77296C19.0878 5.6676 18.8942 5.6164 18.6989 5.62653C18.5037 5.63666 18.3164 5.7076 18.1634 5.82943C18.0105 5.95126 17.8994 6.11787 17.8459 6.30595L14.8515 16.7928L12.1196 9.96408C12.056 9.80566 11.9503 9.66763 11.814 9.56487C11.6777 9.46211 11.5159 9.39851 11.3461 9.38096C11.1763 9.3634 11.0049 9.39254 10.8504 9.46523C10.696 9.53792 10.5643 9.65141 10.4696 9.79345L6.99711 15.0003H1.64961Z" fill="#D9D9D9"/>
</g>
<defs>
<clipPath id="clip0_102_326">
<rect width="30" height="30" fill="white"/>
</clipPath>
</defs>
</svg>
