<svg width="33" height="33" viewBox="0 0 33 33" fill="none" xmlns="http://www.w3.org/2000/svg">
<path d="M22 2.75H11C5.5 2.75 2.75 5.5 2.75 11V28.875C2.75 29.6313 3.36875 30.25 4.125 30.25H22C27.5 30.25 30.25 27.5 30.25 22V11C30.25 5.5 27.5 2.75 22 2.75ZM19.25 20.9688H9.625C9.06125 20.9688 8.59375 20.5012 8.59375 19.9375C8.59375 19.3738 9.06125 18.9062 9.625 18.9062H19.25C19.8137 18.9062 20.2812 19.3738 20.2812 19.9375C20.2812 20.5012 19.8137 20.9688 19.25 20.9688ZM23.375 14.0938H9.625C9.06125 14.0938 8.59375 13.6263 8.59375 13.0625C8.59375 12.4987 9.06125 12.0312 9.625 12.0312H23.375C23.9387 12.0312 24.4062 12.4987 24.4062 13.0625C24.4062 13.6263 23.9387 14.0938 23.375 14.0938Z" fill="url(#paint0_linear_102_134)"/>
<defs>
<linearGradient id="paint0_linear_102_134" x1="16.5" y1="2.75" x2="16.5" y2="30.25" gradientUnits="userSpaceOnUse">
<stop stop-color="#FF9E02"/>
<stop offset="0.38752" stop-color="#FF0042"/>
</linearGradient>
</defs>
</svg>
