<svg width="46" height="46" viewBox="-3 -3 46 46" fill="none" xmlns="http://www.w3.org/2000/svg">
<g transform="translate(20 20) scale(1.35) translate(-20 -20)">
<path d="M26.6333 16.0083L30 12.6417C30.6252 12.0171 31.4729 11.6664 32.3566 11.6667H33.3333C34.2174 11.6667 35.0652 12.0179 35.6903 12.643C36.3155 13.2681 36.6666 14.1159 36.6666 15V25C36.6666 25.8841 36.3155 26.7319 35.6903 27.357C35.0652 27.9821 34.2174 28.3333 33.3333 28.3333H32.3566C31.4727 28.3331 30.625 27.9818 30 27.3567L26.6333 23.9917C26.47 25.6376 25.7006 27.164 24.4747 28.2744C23.2489 29.3848 21.654 29.9998 20 30H9.99998C8.23187 30 6.53618 29.2976 5.28593 28.0474C4.03569 26.7971 3.33331 25.1014 3.33331 23.3333V16.6667C3.33331 14.8986 4.03569 13.2029 5.28593 11.9526C6.53618 10.7024 8.23187 10 9.99998 10H20C21.654 10.0002 23.2489 10.6152 24.4747 11.7256C25.7006 12.836 26.47 14.3624 26.6333 16.0083V16.0083ZM11.6666 23.3333C12.1087 23.3333 12.5326 23.1577 12.8452 22.8452C13.1577 22.5326 13.3333 22.1087 13.3333 21.6667C13.3333 21.2246 13.1577 20.8007 12.8452 20.4882C12.5326 20.1756 12.1087 20 11.6666 20C11.2246 20 10.8007 20.1756 10.4881 20.4882C10.1756 20.8007 9.99998 21.2246 9.99998 21.6667C9.99998 22.1087 10.1756 22.5326 10.4881 22.8452C10.8007 23.1577 11.2246 23.3333 11.6666 23.3333Z" fill="#D9D9D9"/>
</g>
</svg>
