<svg width="64" height="64" viewBox="0 0 64 64" fill="none" xmlns="http://www.w3.org/2000/svg">
<rect width="64" height="64" rx="30" fill="white" fill-opacity="0.1"/>
<path d="M37.7505 31.198C37.7503 29.8564 37.2172 28.5697 36.2685 27.621C35.3198 26.6724 34.0332 26.1393 32.6915 26.139M41.2185 30.844C41.2185 29.781 41.0092 28.7284 40.6023 27.7463C40.1955 26.7643 39.5992 25.8719 38.8475 25.1203C38.0958 24.3687 37.2034 23.7725 36.2213 23.3658C35.2392 22.9591 34.1866 22.7499 33.1235 22.75M32.5305 40.217C32.2305 40.08 31.9315 39.943 31.6325 39.78C30.1659 38.9514 28.8185 37.9273 27.6275 36.736C26.0842 35.2826 24.8162 33.5623 23.8845 31.658C23.3862 30.6351 23.0495 29.5411 22.8865 28.415C22.6667 27.2771 22.7928 26.0995 23.2485 25.034C23.5297 24.576 23.8692 24.1565 24.2585 23.786C24.4165 23.6092 24.6086 23.4662 24.8232 23.3655C25.0379 23.2648 25.2706 23.2085 25.5075 23.2C26.0005 23.274 26.4475 23.532 26.7555 23.923C27.4295 24.672 28.1525 25.346 28.8635 26.057C29.1435 26.297 29.3185 26.637 29.3505 27.005C29.3385 27.315 29.2195 27.61 29.0135 27.841C28.7765 28.141 28.4895 28.415 28.2155 28.701C28.0499 28.8606 27.9231 29.0561 27.8451 29.2725C27.767 29.4889 27.7398 29.7204 27.7655 29.949C27.9375 30.484 28.2325 30.972 28.6265 31.372C29.0993 32.0169 29.5946 32.645 30.1115 33.255C31.0758 34.3673 32.218 35.3118 33.4915 36.05C33.6679 36.1832 33.8764 36.2672 34.0958 36.2936C34.3152 36.3199 34.5377 36.2876 34.7405 36.2C35.1635 35.963 35.5405 35.65 35.8505 35.277C36.1191 34.9503 36.5036 34.74 36.9235 34.69C37.2975 34.71 37.6495 34.87 37.9095 35.14C38.2455 35.426 38.5325 35.763 38.8445 36.075C39.1565 36.387 39.4065 36.612 39.6685 36.898C39.9825 37.1753 40.2775 37.4707 40.5535 37.784C40.7675 38.061 40.8705 38.409 40.8405 38.757C40.7291 39.1737 40.489 39.5446 40.1545 39.817C39.6835 40.3068 39.1112 40.6878 38.4777 40.9336C37.8442 41.1794 37.1647 41.284 36.4865 41.24C35.1135 41.1638 33.7683 40.8161 32.5305 40.217Z" stroke="white" stroke-width="1.5" stroke-miterlimit="10" stroke-linecap="round"/>
</svg>
