<svg width="64" height="64" viewBox="0 0 64 64" fill="none" xmlns="http://www.w3.org/2000/svg">
<rect width="64" height="64" rx="30" fill="white" fill-opacity="0.1"/>
<path d="M22.5624 35.8598C23.2344 33.3398 25.2889 31.3828 27.8969 31.3828C30.3444 31.3828 31.9789 33.5953 31.9249 36.0428L31.8964 37.3273C31.8858 37.8057 31.9733 38.2812 32.1536 38.7245C32.334 39.1677 32.6033 39.5693 32.9449 39.9043L33.4979 40.4473C34.2909 41.2258 33.8279 42.5593 32.7204 42.6513C31.2874 42.7698 29.5154 42.8828 27.9699 42.8828C25.9789 42.8828 23.9884 42.6953 22.7449 42.5498C22.0089 42.4638 21.4659 41.8358 21.5364 41.0988C21.6964 39.4173 22.1234 37.5048 22.5624 35.8598Z" stroke="white" stroke-width="1.5" stroke-linecap="round" stroke-linejoin="round"/>
<path d="M29.9697 31.8923C30.8097 28.7773 31.7007 25.6583 32.3962 22.5058C32.5057 22.0093 32.3722 21.5008 31.8962 21.3233C31.7786 21.28 31.6589 21.2423 31.5377 21.2103C31.4167 21.1776 31.2943 21.1505 31.1707 21.1293C30.6697 21.0443 30.2997 21.4183 30.1467 21.9028C29.1667 24.9983 28.3757 28.1638 27.5402 31.2988M42.4697 42.3833H37.4697M40.9697 38.3833H35.9697M39.4697 34.3833H34.4697M24.9942 38.7583C24.9107 39.5083 24.9942 41.3583 25.9942 42.7583M28.4942 38.8833C28.4942 38.8833 28.4942 41.3833 29.9697 42.6333" stroke="white" stroke-width="1.5" stroke-linecap="round" stroke-linejoin="round"/>
</svg>
