<svg width="32" height="32" viewBox="0 0 32 32" fill="none" xmlns="http://www.w3.org/2000/svg">
<rect width="32" height="32" rx="10" fill="#00C93D"/>
<path d="M17.1061 25.2121H14.8939C11.4474 25.2121 9.72409 25.2121 8.54903 24.231C7.37396 23.2498 7.13025 21.6074 6.64284 18.3226L6.36407 16.444C5.98463 13.8869 5.79491 12.6083 6.33537 11.5151C6.87583 10.4219 8.02619 9.75742 10.3269 8.42842L11.7117 7.62848C13.801 6.42162 14.8457 5.81818 16 5.81818C17.1543 5.81818 18.199 6.42161 20.2882 7.62848L21.6731 8.42842C23.9738 9.75742 25.1242 10.4219 25.6646 11.5151C26.2051 12.6083 26.0154 13.8869 25.6359 16.444L25.3572 18.3226C24.8697 21.6074 24.626 23.2498 23.451 24.231C22.2759 25.2121 20.5526 25.2121 17.1061 25.2121Z" fill="white"/>
<path d="M16 12.8485C16.4142 12.8485 16.75 13.1741 16.75 13.5758V15.7576L19 15.7576C19.4142 15.7576 19.75 16.0832 19.75 16.4849C19.75 16.8865 19.4142 17.2121 19 17.2121L16.75 17.2121V19.3939C16.75 19.7956 16.4142 20.1212 16 20.1212C15.5858 20.1212 15.25 19.7956 15.25 19.3939V17.2121H13C12.5858 17.2121 12.25 16.8865 12.25 16.4849C12.25 16.0832 12.5858 15.7576 13 15.7576H15.25V13.5758C15.25 13.1741 15.5858 12.8485 16 12.8485Z" fill="#00C93D"/>
</svg>
