<svg width="24" height="19" viewBox="0 0 24 19" fill="none" xmlns="http://www.w3.org/2000/svg">
<path d="M2.08643 5.81988L9.91198 1.81711L8.25773 0C2.08643 0 2.08643 5.81988 2.08643 5.81988ZM21.5397 5.81988L13.7142 1.81711L15.3684 0C21.5397 0 21.5397 5.81988 21.5397 5.81988Z" fill="black"/>
<path d="M21.581 3.86679C21.1439 2.03254 19.5599 0.857422 17.6579 0.857422H6.31645C4.42306 0.857422 2.83052 2.03254 2.39339 3.86679C2.39339 3.86679 -0.724834 13.8566 0.157148 16.902C0.44 17.8808 1.36569 18.4508 2.04282 18.7533C2.25115 18.844 2.48046 18.8754 2.7055 18.8441C2.93053 18.8128 3.14256 18.72 3.31823 18.5759C3.31823 18.5759 7.28843 15.1766 7.60557 14.9366C7.92271 14.6966 8.30841 14.5714 8.70269 14.5714H15.2983C15.6925 14.5714 16.0783 14.7051 16.3945 14.9366L20.6904 18.5759C21.0504 18.8699 21.6556 18.8905 21.9667 18.7533C22.6353 18.4602 23.5601 17.8808 23.8515 16.902C24.7078 13.8566 21.581 3.86679 21.581 3.86679Z" fill="#604F9E"/>
<path d="M17.7546 4.79042C17.9819 4.79042 18.1999 4.70012 18.3607 4.53938C18.5214 4.37863 18.6117 4.16062 18.6117 3.9333C18.6117 3.70597 18.5214 3.48796 18.3607 3.32722C18.1999 3.16648 17.9819 3.07617 17.7546 3.07617C17.5273 3.07617 17.3092 3.16648 17.1485 3.32722C16.9878 3.48796 16.8975 3.70597 16.8975 3.9333C16.8975 4.16062 16.9878 4.37863 17.1485 4.53938C17.3092 4.70012 17.5273 4.79042 17.7546 4.79042Z" fill="#FCD53F"/>
<path d="M17.7546 8.66542C17.9819 8.66542 18.1999 8.57512 18.3607 8.41438C18.5214 8.25363 18.6117 8.03562 18.6117 7.8083C18.6117 7.58097 18.5214 7.36296 18.3607 7.20222C18.1999 7.04148 17.9819 6.95117 17.7546 6.95117C17.5273 6.95117 17.3092 7.04148 17.1485 7.20222C16.9878 7.36296 16.8975 7.58097 16.8975 7.8083C16.8975 8.03562 16.9878 8.25363 17.1485 8.41438C17.3092 8.57512 17.5273 8.66542 17.7546 8.66542Z" fill="#86D72F"/>
<path d="M15.8176 6.72792C16.0449 6.72792 16.2629 6.63762 16.4237 6.47688C16.5844 6.31613 16.6747 6.09812 16.6747 5.8708C16.6747 5.64347 16.5844 5.42546 16.4237 5.26472C16.2629 5.10398 16.0449 5.01367 15.8176 5.01367C15.5903 5.01367 15.3722 5.10398 15.2115 5.26472C15.0508 5.42546 14.9604 5.64347 14.9604 5.8708C14.9604 6.09812 15.0508 6.31613 15.2115 6.47688C15.3722 6.63762 15.5903 6.72792 15.8176 6.72792Z" fill="#00A6ED"/>
<path d="M19.6921 6.72792C19.9194 6.72792 20.1374 6.63762 20.2982 6.47688C20.4589 6.31613 20.5492 6.09812 20.5492 5.8708C20.5492 5.64347 20.4589 5.42546 20.2982 5.26472C20.1374 5.10398 19.9194 5.01367 19.6921 5.01367C19.4648 5.01367 19.2467 5.10398 19.086 5.26472C18.9253 5.42546 18.835 5.64347 18.835 5.8708C18.835 6.09812 18.9253 6.31613 19.086 6.47688C19.2467 6.63762 19.4648 6.72792 19.6921 6.72792Z" fill="#F8312F"/>
<path d="M6.57768 7.74814C7.06643 7.74814 7.53516 7.55399 7.88075 7.20839C8.22635 6.8628 8.4205 6.39407 8.4205 5.90532C8.4205 5.41657 8.22635 4.94785 7.88075 4.60225C7.53516 4.25665 7.06643 4.0625 6.57768 4.0625C6.08894 4.0625 5.62021 4.25665 5.27461 4.60225C4.92902 4.94785 4.73486 5.41657 4.73486 5.90532C4.73486 6.39407 4.92902 6.8628 5.27461 7.20839C5.62021 7.55399 6.08894 7.74814 6.57768 7.74814ZM15.1489 12.7366C15.6377 12.7366 16.1064 12.5425 16.452 12.1969C16.7976 11.8513 16.9918 11.3825 16.9918 10.8938C16.9918 10.405 16.7976 9.93632 16.452 9.59072C16.1064 9.24512 15.6377 9.05097 15.1489 9.05097C14.6602 9.05097 14.1915 9.24512 13.8459 9.59072C13.5003 9.93632 13.3061 10.405 13.3061 10.8938C13.3061 11.3825 13.5003 11.8513 13.8459 12.1969C14.1915 12.5425 14.6602 12.7366 15.1489 12.7366ZM10.5376 10.3367H10.8805C11.1204 10.3367 11.3519 10.4995 11.3776 10.7395C11.4376 11.0481 11.1976 11.3224 10.8976 11.3224H10.529C10.3972 11.3224 10.2707 11.3747 10.1775 11.468C10.0843 11.5612 10.0319 11.6876 10.0319 11.8195V12.188C10.0319 12.488 9.75762 12.728 9.44905 12.668C9.20906 12.6252 9.0462 12.3938 9.0462 12.1538V11.8109C9.0462 11.6791 8.99383 11.5526 8.9006 11.4594C8.80737 11.3662 8.68092 11.3138 8.54907 11.3138H8.18051C7.88051 11.3138 7.64052 11.0395 7.70052 10.7309C7.74337 10.4909 7.9748 10.3281 8.21479 10.3281H8.55764C8.83192 10.3281 9.05478 10.1052 9.05478 9.83095V9.46239C9.05478 9.1624 9.32906 8.9224 9.63762 8.9824C9.87762 9.02526 10.0405 9.25668 10.0405 9.49668V9.83953C10.0405 10.1138 10.2633 10.3367 10.5376 10.3367Z" fill="#A4AEEB"/>
</svg>
