<svg width="64" height="64" viewBox="0 0 64 64" fill="none" xmlns="http://www.w3.org/2000/svg">
<rect width="64" height="64" rx="30" fill="#444444"/>
<path fill-rule="evenodd" clip-rule="evenodd" d="M27.2206 25.2476C26.1269 24.5166 25.1634 23.4413 25.1634 21.8713C25.1634 20.845 25.4926 19.9806 26.0874 19.3898C26.3705 19.1044 26.7094 18.8785 27.0836 18.7256C27.4577 18.5727 27.8595 18.496 28.2646 18.5002C29.8709 18.5002 31.4703 19.6447 31.9846 21.6738L32.0103 21.7751L32.036 21.6738C32.5503 19.6481 34.1617 18.5002 35.756 18.5002C36.5549 18.5002 37.3469 18.7871 37.9331 19.3898C38.528 19.9958 38.8571 20.8534 38.8571 21.8713C38.8571 23.4345 37.9006 24.5217 36.8 25.2476H39.8857C41.3257 25.2476 42.0457 25.2476 42.5943 25.5228C43.0777 25.7658 43.472 26.1524 43.7189 26.6302C44 27.172 44 27.8811 44 29.2974V29.635C44 31.053 44 31.7621 43.7189 32.3023C43.4723 32.7791 43.0786 33.1668 42.5943 33.4097C42.4951 33.46 42.3912 33.5007 42.284 33.5312V41.4485C42.284 42.8665 42.284 43.5755 42.0029 44.1157C41.7563 44.5926 41.3626 44.9803 40.8783 45.2231C40.328 45.5 39.608 45.5 38.1697 45.5H25.8269C24.3869 45.5 23.6669 45.5 23.1183 45.2231C22.634 44.9803 22.2403 44.5926 21.9937 44.1157C21.7143 43.5755 21.7143 42.8665 21.7143 41.4485V33.5312C21.6071 33.5007 21.5032 33.46 21.404 33.4097C20.9197 33.1668 20.526 32.7791 20.2794 32.3023C20 31.7604 20 31.0514 20 29.635V29.2974C20 27.8794 20 27.1704 20.2794 26.6302C20.5263 26.1541 20.9189 25.7658 21.404 25.5228C21.9526 25.2476 22.6726 25.2476 24.1126 25.2476H27.1983H27.2206ZM36.7349 20.5546C36.9697 20.7943 37.1771 21.2045 37.1771 21.8697C37.1771 22.9939 36.1726 23.8448 34.6914 24.4694C34.1575 24.6894 33.608 24.871 33.0474 25.0129C33.1657 24.385 33.3697 23.443 33.7177 22.0756C34.0589 20.7285 35.0291 20.1849 35.7749 20.1849C36.1554 20.1849 36.4863 20.3183 36.7246 20.5614L36.7349 20.5546ZM30.3234 26.9357H24.152C23.4029 26.9357 22.9451 26.9357 22.6023 26.9644C22.4774 26.9733 22.3536 26.9925 22.232 27.0218L22.22 27.0269C22.0587 27.1086 21.9278 27.2386 21.8463 27.3983L21.8394 27.4101L21.824 27.4641C21.8 27.5661 21.7856 27.6701 21.7811 27.7747C21.7537 28.1123 21.752 28.5631 21.752 29.3008V29.6384C21.752 30.3761 21.752 30.8268 21.7811 31.1645C21.7901 31.2874 21.8096 31.4094 21.8394 31.5291L21.8463 31.5409C21.9303 31.7036 22.0657 31.8351 22.232 31.9157L22.2869 31.9309C22.3451 31.9444 22.4411 31.9596 22.6023 31.9731C22.9451 32.0001 23.4029 32.0018 24.152 32.0018H30.3234V26.9357ZM33.752 26.9357V32.0001H39.9234C40.6709 32.0001 41.1303 32.0001 41.4731 31.9714C41.598 31.9625 41.7219 31.9433 41.8434 31.914L41.8554 31.9089C42.0163 31.8281 42.147 31.6993 42.2291 31.5409L42.236 31.5274L42.2514 31.4734C42.2755 31.3714 42.2898 31.2674 42.2943 31.1628C42.3217 30.8251 42.3234 30.3744 42.3234 29.6367V29.2991C42.3234 28.5614 42.3234 28.1106 42.2943 27.773C42.2853 27.6501 42.2658 27.5281 42.236 27.4084L42.2291 27.3966C42.1476 27.2369 42.0168 27.1069 41.8554 27.0252L41.8486 27.0235L41.8434 27.0201L41.7886 27.0049C41.685 26.9813 41.5794 26.9671 41.4731 26.9627C41.1303 26.9357 40.6726 26.9357 39.9234 26.9357H33.752ZM30.3234 33.6882H23.4663V41.4536C23.4663 42.1896 23.4663 42.642 23.4954 42.9796C23.5044 43.1026 23.5239 43.2246 23.5537 43.3443L23.5589 43.3561C23.6433 43.5191 23.7793 43.6506 23.9463 43.7308L24.0011 43.746C24.0594 43.7595 24.1554 43.7747 24.3166 43.7882C24.6594 43.8153 25.1171 43.8169 25.8663 43.8169H30.3234V33.6882ZM33.752 43.8169H38.2091C38.9566 43.8169 39.416 43.8169 39.7589 43.7882C39.8837 43.7794 40.0076 43.7602 40.1291 43.7308L40.1411 43.7258C40.302 43.6449 40.4328 43.5161 40.5149 43.3578L40.5217 43.3443L40.5371 43.2902C40.5612 43.1882 40.5755 43.0843 40.58 42.9796C40.6074 42.642 40.6091 42.1913 40.6091 41.4536V33.6882H33.752V43.8169ZM26.8949 21.8713C26.8949 21.2062 27.1023 20.796 27.3371 20.5563C27.4608 20.4328 27.6089 20.3357 27.7723 20.271C27.9357 20.2062 28.1108 20.1752 28.2869 20.1798C29.0377 20.1798 30.0011 20.7285 30.344 22.0705C30.692 23.4447 30.896 24.3833 31.0143 25.0079C30.4537 24.866 29.9043 24.6843 29.3703 24.4643C27.8943 23.8431 26.8846 22.9872 26.8846 21.8646L26.8949 21.8713Z" fill="white"/>
</svg>
