<svg width="24" height="26" viewBox="0 0 24 26" fill="none" xmlns="http://www.w3.org/2000/svg">
<path d="M1.78872 6.00195C1.78872 6.00195 0.408613 6.11108 0.224598 6.42134C0.0384434 6.73159 0.0277448 7.20875 0.0277448 7.73298C0.0277448 8.25934 0.00634766 9.46614 0.00634766 9.46614L0.335863 10.1744C0.335863 10.1744 0.397914 19.2018 0.397914 19.4821C0.397914 19.7603 0.397914 20.1005 0.800179 20.3166C1.20244 20.5327 11.426 25.4712 11.7448 25.6038C12.2262 25.8028 12.4552 25.7279 12.4552 25.7279L23.8149 6.72945C23.8149 6.72945 23.7785 6.2095 23.3056 6.0854C23.0339 6.01693 1.78872 6.00195 1.78872 6.00195Z" fill="#F5B03E"/>
<path d="M12.333 12.2486C12.1597 12.7257 12.2389 17.6599 12.2688 21.2482C12.2988 24.8343 12.1768 25.5768 12.2688 25.7009C12.3608 25.825 12.6112 25.7052 13.3194 25.3906C14.6354 24.8086 20.9561 21.6804 21.4204 21.4022C21.8847 21.1241 23.0187 20.5485 23.2049 20.2382C23.391 19.928 23.4916 17.0415 23.5537 14.7242C23.6157 12.4048 23.6778 10.5496 23.6778 10.5496L23.9559 9.71515C23.9559 9.71515 23.896 7.4599 23.8853 7.21169C23.8661 6.80087 23.8211 6.58904 23.7163 6.64039C23.5665 6.711 22.3169 7.73592 19.0089 9.34498C16.9313 10.3528 12.4529 11.919 12.333 12.2486Z" fill="#E07F14"/>
<path d="M12.363 1.61224C11.4365 1.56945 8.90096 3.03515 6.45742 3.83754C4.01387 4.63993 0.325014 6.25327 0.292918 6.34742C0.262962 6.43943 1.77788 7.11771 2.74502 7.58203C3.89405 8.13193 8.28045 10.2096 9.08284 10.5498C9.88737 10.89 11.8045 11.686 12.1127 11.6625C12.5449 11.6325 16.6274 10.0234 18.6987 9.03489C20.7699 8.04635 23.359 6.51432 23.3932 6.14201C23.4082 5.97511 19.5845 4.54792 17.678 3.68562C13.9977 2.01879 13.0413 1.64434 12.363 1.61224Z" fill="#FDD717"/>
<path d="M0.0171176 9.86302C0.0492133 10.2653 0.269603 10.4086 0.830207 10.6526C1.39081 10.8965 11.9888 16.402 12.2327 16.402C12.4766 16.402 12.5494 15.529 12.2819 15.5525C12.1364 15.5653 8.65512 13.9113 5.40276 12.2595C2.64254 10.8601 0 9.46289 0 9.46289L0.0171176 9.86302Z" fill="#E37D14"/>
<path d="M23.9585 9.69727C23.9585 9.69727 12.6416 15.4531 12.5303 15.5087C12.4191 15.5643 12.2415 15.5451 12.2415 15.5451L12.2329 16.4031C12.2329 16.4031 12.3378 16.4266 12.4554 16.3903C12.5239 16.3689 23.6311 10.6195 23.6803 10.6024C23.7296 10.5852 23.9435 10.4569 23.9885 10.1851C24.027 9.96687 23.9585 9.69727 23.9585 9.69727Z" fill="#BA5E0D"/>
<path d="M4.45483 20.0595L6.66943 23.3547L7.63871 23.6863C7.63871 23.6863 7.71788 20.0916 7.74998 17.4277C7.79491 13.5355 7.7778 9.98577 7.83343 9.78464C7.92544 9.44442 12.2327 8.04719 12.2327 8.04719C12.2327 8.04719 17.0984 9.57281 17.2524 9.91302C17.3209 10.0628 17.2674 12.5834 17.2524 15.5212C17.2332 19.2314 17.2396 23.5151 17.2396 23.5151C17.2396 23.5151 17.7424 23.513 17.8023 23.3268C17.8644 23.1407 18.1126 21.7049 18.1126 21.7049L19.9998 9.12561L20.9584 7.88886L19.6275 5.35544L14.167 2.66797L12.2904 3.08949L10.2599 2.77923L3.81934 7.40742L4.57037 8.93089L6.41266 9.87022L4.45483 20.0595Z" fill="#AF0F1B"/>
<path d="M17.8107 9.78242C17.693 10.0413 17.7615 23.3824 17.7615 23.3824C17.7615 23.3824 18.3499 23.0572 19.1074 22.6934C19.8606 22.3318 20.4019 22.1071 20.449 21.9188C20.4961 21.7305 20.5795 8.53711 20.5795 8.53711L17.8107 9.78242Z" fill="#DC0D28"/>
<path d="M7.12712 9.50658C7.19773 9.58361 7.08218 23.4275 6.93882 23.4596C6.82542 23.4874 4.24707 22.3363 4.24707 22.2186C4.24707 22.1009 4.45462 8.87109 4.45462 8.87109C4.45462 8.87109 6.91743 9.27121 7.12712 9.50658ZM12.2367 2.26367C11.5242 2.26367 10.7368 2.46694 10.5079 3.06392C10.2789 3.6609 10.2276 4.54888 10.2276 5.21219C10.2276 5.84768 10.1248 7.47386 12.0827 7.44818C14.0405 7.42251 14.0983 6.69715 14.1282 5.09664C14.1539 3.76147 13.9763 3.11314 13.7987 2.83497C13.6404 2.58463 13.114 2.26367 12.2367 2.26367Z" fill="#FF2A23"/>
<path d="M11.105 5.56627C11.5501 5.59195 11.7405 4.6141 12.0829 4.07918C12.4252 3.54639 12.7826 3.18906 12.6542 2.9109C12.5493 2.67981 11.6186 2.60492 11.1157 3.3046C10.7627 3.79888 10.7006 5.54274 11.105 5.56627Z" fill="#FCC9D2"/>
<path d="M13.9702 2.72691C13.9702 2.72691 14.6014 3.36883 14.7662 4.62697C14.9309 5.88512 14.7405 6.86297 14.7405 6.86297C14.7405 6.86297 17.8773 6.76882 18.96 6.97637C20.0277 7.18392 20.4 7.65466 20.4 7.99701C20.4 8.33937 19.6982 8.61539 18.9857 8.56404C18.2732 8.51268 17.7917 8.47417 17.7019 8.6539C17.612 8.83364 17.7404 9.1118 18.7311 9.18669C19.7217 9.26372 20.8665 9.1225 21.2217 7.89003C21.5769 6.65756 21.5897 4.52213 21.4635 2.98368C21.3372 1.44523 21.0591 0.565809 20.3701 0.232014C19.6447 -0.116758 17.8281 -0.17453 16.1121 0.790478C14.396 1.75549 13.9702 2.72691 13.9702 2.72691Z" fill="#FF2A23"/>
<path d="M17.5244 1.26544C17.3018 0.978717 16.585 0.987276 16.202 1.4302C15.7955 1.90093 15.7056 3.69187 16.2277 3.79457C16.8183 3.91012 16.7113 2.94297 17.1435 2.34599C17.5672 1.76185 17.7405 1.54574 17.5244 1.26544Z" fill="#FCC9D2"/>
<path d="M10.3435 2.78982C10.3435 2.78982 7.94062 -0.0110587 5.19538 0.0317354C3.54353 0.0574119 3.12414 1.00958 3.03427 1.40329C2.94441 1.79699 2.2597 5.71266 3.17336 7.83311C4.08701 9.95356 5.98279 9.40366 6.28021 9.33518C6.66108 9.24532 7.47203 8.96715 7.395 8.67402C7.31797 8.38087 4.62408 9.43575 4.5984 8.22896C4.57272 7.02216 6.50488 6.89378 7.395 6.8681C8.28512 6.84242 9.81073 7.0457 9.81073 7.0457C9.81073 7.0457 9.54327 5.58428 9.72086 4.54224C9.89846 3.5002 10.3435 2.78982 10.3435 2.78982Z" fill="#FF2A23"/>
<path d="M4.45917 1.04772C4.11682 1.40291 3.9756 3.45061 4.19171 4.46697C4.40782 5.48334 4.59825 5.91556 5.04331 5.82783C5.41562 5.75294 5.64029 3.75873 5.81789 3.05691C6.00832 2.30801 6.47906 1.51204 6.28862 1.16327C5.99762 0.628339 4.8165 0.677552 4.45917 1.04772Z" fill="#FCC9D2"/>
</svg>
