<svg width="40" height="40" viewBox="0 0 40 40" fill="none" xmlns="http://www.w3.org/2000/svg">
<g clip-path="url(#clip0_3731_618)">
<rect x="-5" y="-5" width="50" height="50" rx="10" fill="#FFA0CD"/>
<path d="M4.66594 9.00008C3.44539 14.8504 6.26125 18.6563 9.67578 20.7626C7.09273 20.1524 4.59359 19.2405 2 17.8841C3.99219 23.9378 8.34101 25.3697 12.1489 24.9739C10.0448 26.0873 7.82141 26.9506 5.59133 27.535C11.0168 30.9056 14.9749 28.8208 17.1749 25.8696C17.014 25.7253 16.8521 25.5821 16.6892 25.4401C16.2835 25.1513 15.898 24.819 15.5347 24.4471C15.0684 24.0491 14.5937 23.6428 14.1149 23.2182C11.4862 20.8872 8.80414 18.0921 8.6907 14.4034L8.69055 14.3916C7.19469 12.6684 5.84109 10.8523 4.66594 9.00008ZM36.1456 9.00008C34.9706 10.852 33.6169 12.6675 32.121 14.3902L32.1213 14.3963C32.2298 17.9874 29.506 20.8541 26.8113 23.2545C25.7277 24.2198 24.6348 25.1158 23.6938 25.9452C25.9046 28.8561 29.8409 30.8768 35.2204 27.535C32.9905 26.9506 30.7688 26.0873 28.6649 24.9741C32.4725 25.3691 36.8196 23.9366 38.8115 17.8842C36.218 19.2407 33.7188 20.1527 31.1357 20.7627C34.5502 18.6563 37.3663 14.8505 36.1456 9.00008ZM25.8003 9.31078C24.0702 9.32406 22.2538 10.2366 21.0327 12.3077L20.4247 13.3389L19.8203 12.3055C18.299 9.705 15.5708 8.89742 13.4023 9.5125C11.4894 10.0552 10.012 11.6185 10.0963 14.36C10.1891 17.3764 12.4871 19.8953 15.0479 22.1661C16.3284 23.3015 17.6541 24.3632 18.752 25.4098C19.4048 26.0323 19.9845 26.6475 20.4185 27.2959C20.8535 26.693 21.4281 26.1129 22.0761 25.51C23.1997 24.4644 24.5648 23.3723 25.8761 22.2042C28.4985 19.8683 30.8015 17.2734 30.7159 14.4388C30.6286 11.5502 28.9407 9.87781 26.9177 9.42883C26.5508 9.34737 26.1761 9.30787 25.8003 9.31078Z" fill="#FE3BA4"/>
</g>
<defs>
<clipPath id="clip0_3731_618">
<rect width="40" height="40" rx="10" fill="white"/>
</clipPath>
</defs>
</svg>
