<svg width="64" height="64" viewBox="0 0 64 64" fill="none" xmlns="http://www.w3.org/2000/svg">
<rect width="64" height="64" rx="30" fill="white" fill-opacity="0.1"/>
<path d="M26.455 38.25L22 41.75V23.25C22 22.9848 22.1054 22.7304 22.2929 22.5429C22.4804 22.3554 22.7348 22.25 23 22.25H41C41.2652 22.25 41.5196 22.3554 41.7071 22.5429C41.8946 22.7304 42 22.9848 42 23.25V37.25C42 37.5152 41.8946 37.7696 41.7071 37.9571C41.5196 38.1446 41.2652 38.25 41 38.25H26.455ZM25.763 36.25H40V24.25H24V37.635L25.763 36.25ZM31 29.25H33V31.25H31V29.25ZM27 29.25H29V31.25H27V29.25ZM35 29.25H37V31.25H35V29.25Z" fill="white"/>
</svg>
