<svg width="64" height="64" viewBox="0 0 64 64" fill="none" xmlns="http://www.w3.org/2000/svg">
<rect width="64" height="64" rx="30" fill="white" fill-opacity="0.1"/>
<path d="M28.625 37.6491C28.625 39.2231 27.365 40.4992 25.813 40.4992C24.259 40.4992 23 39.2231 23 37.6491C23 36.0761 24.26 34.8001 25.813 34.8001C27.366 34.8001 28.625 36.0751 28.625 37.6491ZM28.625 37.6491V25.4612C28.625 24.9412 29.019 24.5072 29.534 24.4602L39.909 23.5042C40.0479 23.4915 40.1878 23.5079 40.3199 23.5526C40.452 23.5972 40.5733 23.6689 40.6761 23.7632C40.7788 23.8574 40.8607 23.9721 40.9165 24.0999C40.9723 24.2277 41.0007 24.3657 41 24.5052V36.5092C41 38.0822 39.74 39.3592 38.188 39.3592C36.634 39.3592 35.375 38.0822 35.375 36.5092C35.375 34.9362 36.635 33.6592 38.188 33.6592C39.741 33.6592 41 34.9371 41 36.5111" stroke="white" stroke-width="1.5" stroke-linecap="round" stroke-linejoin="round"/>
</svg>
