<svg width="64" height="64" viewBox="0 0 64 64" fill="none" xmlns="http://www.w3.org/2000/svg">
<rect width="64" height="64" rx="30" fill="white" fill-opacity="0.1"/>
<path d="M39.5 23H24.5C24.1022 23 23.7206 23.158 23.4393 23.4393C23.158 23.7206 23 24.1022 23 24.5V39.5C23 39.8978 23.158 40.2794 23.4393 40.5607C23.7206 40.842 24.1022 41 24.5 41H39.5C39.8978 41 40.2794 40.842 40.5607 40.5607C40.842 40.2794 41 39.8978 41 39.5V24.5C41 24.1022 40.842 23.7206 40.5607 23.4393C40.2794 23.158 39.8978 23 39.5 23Z" stroke="white" stroke-width="2" stroke-linecap="round" stroke-linejoin="round"/>
<path d="M29 31.5C29.663 31.5 30.2989 31.2366 30.7678 30.7678C31.2366 30.2989 31.5 29.663 31.5 29C31.5 28.337 31.2366 27.7011 30.7678 27.2322C30.2989 26.7634 29.663 26.5 29 26.5C28.337 26.5 27.7011 26.7634 27.2322 27.2322C26.7634 27.7011 26.5 28.337 26.5 29C26.5 29.663 26.7634 30.2989 27.2322 30.7678C27.7011 31.2366 28.337 31.5 29 31.5ZM33.895 33.11C33.9898 32.9831 34.1133 32.8806 34.2554 32.8108C34.3975 32.741 34.5542 32.706 34.7125 32.7085C34.8708 32.7111 35.0263 32.7513 35.1661 32.8257C35.3058 32.9001 35.4259 33.0066 35.5165 33.1365L39.904 39.428C40.366 40.091 39.8915 41 39.084 41H28L33.895 33.11Z" stroke="white" stroke-width="2" stroke-linecap="round" stroke-linejoin="round"/>
</svg>
