<svg width="64" height="64" viewBox="0 0 64 64" fill="none" xmlns="http://www.w3.org/2000/svg">
<rect width="64" height="64" rx="30" fill="white" fill-opacity="0.1"/>
<path d="M39 24H38V22H36V24H28V22H26V24H25C23.9 24 23 24.9 23 26V40C23 40.5304 23.2107 41.0391 23.5858 41.4142C23.9609 41.7893 24.4696 42 25 42H39C40.11 42 41 41.11 41 40V26C41 25.4696 40.7893 24.9609 40.4142 24.5858C40.0391 24.2107 39.5304 24 39 24ZM39 40H25V30H39V40ZM25 28V26H39V28H25ZM27 32H37V34H27V32ZM27 36H34V38H27V36Z" fill="white"/>
</svg>
