<svg width="24" height="23" viewBox="0 0 24 23" fill="none" xmlns="http://www.w3.org/2000/svg">
<path d="M20.1569 21.3098L20.0976 22.9993C19.1125 23.0192 18.3213 22.6412 17.9937 21.3137L20.1569 21.3098ZM3.76414 21.3098L3.82343 22.9993C4.80858 23.0192 5.59979 22.6412 5.92733 21.3137L3.76414 21.3098ZM21.1736 20.1737H2.7475L2.53887 18.8343H21.3823L21.1736 20.1737ZM11.9605 14.0654C16.0733 14.0654 17.2821 15.2538 17.2821 15.2538L17.0262 17.6835H6.89489L6.63899 15.2538C6.63899 15.2538 7.84779 14.0654 11.9605 14.0654ZM18.2799 17.6835C18.2799 17.6835 18.9096 13.2852 19.0942 11.8491C19.4938 8.74059 24.2624 9.92174 23.9016 12.4458C23.6701 14.0653 21.8121 13.8351 21.8121 13.8351L21.3066 17.6835H18.2799ZM5.64117 17.6835C5.64117 17.6835 5.01149 13.2852 4.82686 11.8491C4.42724 8.74059 -0.341332 9.92174 0.0194688 12.4458C0.250984 14.0653 2.10899 13.8351 2.10899 13.8351L2.61447 17.6835H5.64117ZM11.9605 0C16.6714 0 21.8931 1.09876 21.2909 9.03883C19.6359 8.81068 18.1297 9.24201 17.9226 10.7445C17.8429 11.3225 17.5066 13.8284 17.5066 13.8284C17.5066 13.8284 15.5309 12.8965 11.9605 12.8965C8.39011 12.8965 6.41437 13.8284 6.41437 13.8284C6.41437 13.8284 6.07806 11.3225 5.99839 10.7445C5.79131 9.24201 4.28513 8.81068 2.63019 9.03883C2.02793 1.09876 7.2497 0 11.9605 0Z" fill="white"/>
</svg>
