<svg width="57" height="58" viewBox="0 0 57 58" fill="none" xmlns="http://www.w3.org/2000/svg">
<rect width="57" height="57.999" rx="28.5" fill="#DADADA" fill-opacity="0.32"/>
<path fill-rule="evenodd" clip-rule="evenodd" d="M24.09 31.9095C23.6684 31.4874 23.0965 31.25 22.5 31.2495H19.5C19.3011 31.2495 19.1103 31.1705 18.9697 31.0298C18.829 30.8892 18.75 30.6984 18.75 30.4995V27.4995C18.75 27.3006 18.829 27.1098 18.9697 26.9692C19.1103 26.8285 19.3011 26.7495 19.5 26.7495H22.5C23.0965 26.749 23.6684 26.5116 24.09 26.0895L27.8145 22.3665C27.8708 22.3105 27.9424 22.2724 28.0204 22.2571C28.0983 22.2417 28.179 22.2498 28.2523 22.2803C28.3257 22.3108 28.3883 22.3623 28.4324 22.4284C28.4765 22.4945 28.5 22.5721 28.5 22.6515V35.3475C28.5 35.4269 28.4765 35.5046 28.4324 35.5706C28.3883 35.6367 28.3257 35.6882 28.2523 35.7187C28.179 35.7492 28.0983 35.7573 28.0204 35.7419C27.9424 35.7266 27.8708 35.6885 27.8145 35.6325L24.09 31.9095ZM19.5 24.4995H22.5L26.223 20.7765C26.5939 20.4057 27.0664 20.1532 27.5808 20.0509C28.0951 19.9486 28.6283 20.0012 29.1128 20.2018C29.5973 20.4025 30.0115 20.7424 30.3029 21.1784C30.5943 21.6144 30.7499 22.1271 30.75 22.6515V35.3475C30.7499 35.872 30.5943 36.3846 30.3029 36.8206C30.0115 37.2566 29.5973 37.5965 29.1128 37.7972C28.6283 37.9979 28.0951 38.0504 27.5808 37.9481C27.0664 37.8458 26.5939 37.5933 26.223 37.2225L22.5 33.4995H19.5C18.7044 33.4995 17.9413 33.1834 17.3787 32.6208C16.8161 32.0582 16.5 31.2952 16.5 30.4995V27.4995C16.5 26.7039 16.8161 25.9408 17.3787 25.3782C17.9413 24.8156 18.7044 24.4995 19.5 24.4995ZM37.743 36.654C37.3455 37.1325 36.6285 37.128 36.189 36.69C35.751 36.2505 35.757 35.541 36.1425 35.055C37.5107 33.3336 38.2538 31.1985 38.25 28.9995C38.2538 26.8005 37.5107 24.6655 36.1425 22.944C35.757 22.458 35.751 21.7485 36.189 21.309C36.6285 20.871 37.3455 20.868 37.743 21.345C39.5286 23.4957 40.5042 26.2041 40.5 28.9995C40.5 31.9095 39.465 34.5765 37.743 36.654ZM34.536 33.4515C34.167 33.951 33.447 33.9465 33.0075 33.507C32.568 33.0675 32.5815 32.361 32.9175 31.8375C33.4612 30.9908 33.7502 30.0057 33.75 28.9995C33.75 27.954 33.444 26.979 32.9175 26.1615C32.5815 25.6395 32.568 24.9315 33.0075 24.492C33.447 24.0525 34.167 24.048 34.5375 24.5475C35.4555 25.7925 36 27.3345 36 28.9995C36.0022 30.6021 35.4889 32.163 34.536 33.4515Z" fill="#DADADA"/>
</svg>
