<svg xmlns="http://www.w3.org/2000/svg" viewBox="0 0 170 50" width="170" height="50">
  <defs>
    <linearGradient id="g" x1="0" x2="1" y1="0" y2="0">
      <stop offset="0" stop-color="#FFB020"/>
      <stop offset="1" stop-color="#E85A00"/>
    </linearGradient>
  </defs>
  <rect x="2" y="2" width="166" height="46" rx="23" fill="url(#g)" stroke="#FCD34D" stroke-width="3"/>
  <circle cx="27" cy="25" r="15" fill="#000" fill-opacity="0.35"/>
  <g transform="translate(15,13)" fill="none" stroke="#FFF" stroke-width="2" stroke-linecap="round" stroke-linejoin="round">
    <circle cx="12" cy="12" r="3"/>
    <path d="M19.4 15a1.65 1.65 0 00.33 1.82l.06.06a2 2 0 01-2.83 2.83l-.06-.06a1.65 1.65 0 00-1.82-.33 1.65 1.65 0 00-1 1.51V21a2 2 0 01-4 0v-.09a1.65 1.65 0 00-1-1.51 1.65 1.65 0 00-1.82.33l-.06.06a2 2 0 01-2.83-2.83l.06-.06a1.65 1.65 0 00.33-1.82 1.65 1.65 0 00-1.51-1H3a2 2 0 010-4h.09a1.65 1.65 0 001.51-1 1.65 1.65 0 00-.33-1.82l-.06-.06a2 2 0 012.83-2.83l.06.06a1.65 1.65 0 001.82.33H9a1.65 1.65 0 001-1.51V3a2 2 0 014 0v.09a1.65 1.65 0 001 1.51 1.65 1.65 0 001.82-.33l.06-.06a2 2 0 012.83 2.83l-.06.06a1.65 1.65 0 00-.33 1.82V9a1.65 1.65 0 001.51 1H21a2 2 0 010 4h-.09a1.65 1.65 0 00-1.51 1z"/>
  </g>
  <text x="103" y="32" text-anchor="middle" font-family="Inter,Arial,sans-serif" font-size="17" font-weight="800" fill="#FFF" letter-spacing="0.5">Admin</text>
</svg>
